# xmcd
#
# Track frame offsets:
#	150
#	15513
#	35121
#	50311
#	65824
#	80495
#	102407
#	118809
#	135959
#	158198
#
# Disc length: 2260 seconds
# Revision: 0
# Processed by: cddbd v1.5.2PL0 Copyright (c) Steve Scherf et al.
# Submitted via: dBpowerAMP V12.0
#
DISCID=8308d20a
DTITLE=Gregory Larsen Band - Hey Which Way
DYEAR=2018
DGENRE=Country
TTITLE0=Young and Dumb
TTITLE1=Hey Which Way
TTITLE2=Raise A Little Hell
TTITLE3=Only You
TTITLE4=Bringin' That Country
TTITLE5=Cheyenne Sunrise
TTITLE6=Could I Be
TTITLE7=Haylee
TTITLE8=Burn
TTITLE9=Don't Stay Away
EXTD=
EXTT0=
EXTT1=
EXTT2=
EXTT3=
EXTT4=
EXTT5=
EXTT6=
EXTT7=
EXTT8=
EXTT9=
PLAYORDER=
